<svg xmlns="http://www.w3.org/2000/svg" version="1.1" xmlns:xlink="http://www.w3.org/1999/xlink" xmlns:svgjs="http://svgjs.dev/svgjs" width="1000" height="863" viewBox="0 0 1000 863"><g transform="matrix(1,0,0,1,0.4816778199048031,0.349392712550582)"><svg viewBox="0 0 286 247" data-background-color="#ffffff" preserveAspectRatio="xMidYMid meet" height="863" width="1000" xmlns="http://www.w3.org/2000/svg" xmlns:xlink="http://www.w3.org/1999/xlink"><g id="tight-bounds" transform="matrix(1,0,0,1,-0.137759856492778,-0.09999999999999432)"><svg viewBox="0 0 286.27551971298556 247.2" height="247.2" width="286.27551971298556"><g><svg viewBox="0 0 395.52 341.53302419300434" height="247.2" width="286.27551971298556"><g transform="matrix(1,0,0,1,0,207.04535564120494)"><svg viewBox="0 0 395.52 134.4876685517994" height="134.4876685517994" width="395.52"><g id="textblocktransform"><svg viewBox="0 0 395.52 134.4876685517994" height="134.4876685517994" width="395.52" id="textblock"><g><svg viewBox="0 0 395.52 89.7312632483529" height="89.7312632483529" width="395.52"><g transform="matrix(1,0,0,1,0,0)"><svg width="395.52" viewBox="4.45 -37.95 174.54000000000002 39.6" height="89.7312632483529" data-palette-color="#000000"><path d="M27.95 0L4.45 0 4.45-36.25 9.95-36.25 9.95-5.2 27.95-5.2 27.95 0ZM33 0L33-36.25 38.45-36.25 38.45 0 33 0ZM73.7-36.25L79.15-36.25 79.15 1.65Q78.45 0.75 76.45-1.25 74.45-3.25 71.84-5.85 69.25-8.45 66.32-11.3 63.4-14.15 60.8-16.73 58.2-19.3 56.25-21.33 54.3-23.35 53.65-24.2L53.65-24.2 52.7-25.5 52.85-23.9 52.85 0 47.35 0 47.35-37.95Q47.9-37.25 49.17-35.95 50.45-34.65 52.17-32.93 53.9-31.2 55.97-29.2 58.05-27.2 60.17-25.15 62.3-23.1 64.37-21.13 66.45-19.15 68.17-17.45 69.9-15.75 71.15-14.45 72.4-13.15 72.9-12.5L72.9-12.5 73.84-11.1 73.7-12.8 73.7-36.25ZM116.29 0L109.54 0Q107.79-2.25 106.19-4.3 104.59-6.35 103.04-8.4 101.49-10.45 99.92-12.55 98.34-14.65 96.59-16.9L96.59-16.9Q95.94-16.2 95.34-15.63 94.74-15.05 94.04-14.45L94.04-14.45Q94.04-10.6 94.07-7.23 94.09-3.85 94.09 0L94.09 0 88.04 0 88.04-36.25 94.09-36.25 94.09-22.7Q94.09-22.25 94.02-21.83 93.94-21.4 93.94-20.95L93.94-20.95Q94.19-21.3 94.44-21.58 94.69-21.85 94.94-22.25L94.94-22.25Q98.49-25.6 101.79-29.23 105.09-32.85 108.64-36.25L108.64-36.25 115.59-36.25Q111.84-32.35 108.17-28.4 104.49-24.45 100.74-20.55L100.74-20.55Q102.84-17.85 104.77-15.33 106.69-12.8 108.57-10.3 110.44-7.8 112.34-5.25 114.24-2.7 116.29 0L116.29 0ZM133.79 0.4L133.79 0.4Q130.89 0.4 128.39-0.55 125.89-1.5 124.02-3.23 122.14-4.95 121.06-7.38 119.99-9.8 119.99-12.8L119.99-12.8 119.99-36.25 125.49-36.25 125.49-12.95Q125.49-11.2 126.11-9.73 126.74-8.25 127.86-7.13 128.99-6 130.49-5.38 131.99-4.75 133.79-4.75L133.79-4.75Q135.54-4.75 137.06-5.38 138.59-6 139.72-7.13 140.84-8.25 141.49-9.73 142.14-11.2 142.14-12.95L142.14-12.95 142.14-36.25 147.64-36.25 147.64-12.8Q147.64-9.8 146.56-7.38 145.49-4.95 143.62-3.23 141.74-1.5 139.22-0.55 136.69 0.4 133.79 0.4ZM161.64-31.15L161.64-18.1 166.59-18.1Q168.59-18.1 169.94-18.8 171.29-19.5 172.06-20.5 172.84-21.5 173.16-22.65 173.49-23.8 173.49-24.7L173.49-24.7Q173.49-25.65 173.16-26.78 172.84-27.9 172.04-28.88 171.24-29.85 169.91-30.5 168.59-31.15 166.64-31.15L166.64-31.15 161.64-31.15ZM161.64 0L156.14 0 156.14-36.25 166.04-36.25Q168.89-36.25 171.26-35.5 173.64-34.75 175.36-33.27 177.09-31.8 178.04-29.68 178.99-27.55 178.99-24.8L178.99-24.8Q178.99-22.65 178.34-20.53 177.69-18.4 176.24-16.73 174.79-15.05 172.44-14 170.09-12.95 166.74-12.95L166.74-12.95 161.64-12.95 161.64 0Z" opacity="1" transform="matrix(1,0,0,1,0,0)" fill="#000000" class="wordmark-text-0" data-fill-palette-color="primary" id="text-0"></path></svg></g></svg></g><g transform="matrix(1,0,0,1,75.54432,110.91466095097107)"><svg viewBox="0 0 244.43135999999998 23.573007600828323" height="23.573007600828323" width="244.43135999999998"><g transform="matrix(1,0,0,1,0,0)"><svg width="244.43135999999998" viewBox="2 -38.85 506.99 48.900000000000006" height="23.573007600828323" data-palette-color="#363c3e"><path d="M2-36.25L25.55-36.25 25.55-31.05 16.4-31.05 16.4 0 10.95 0 10.95-31.05 2-31.05 2-36.25ZM29.65 0L29.65-38.85 33.9-38.85 33.9-15.85Q35-18.35 37-19.88 39-21.4 42.15-21.45L42.15-21.45Q45.35-21.5 47.27-19.75 49.2-18 49.3-15.2L49.3-15.2 49.3 0 45 0 45-13.25Q44.9-14.85 43.9-15.98 42.9-17.1 40.75-17.2L40.75-17.2Q39.25-17.2 38-16.68 36.75-16.15 35.85-15.25 34.95-14.35 34.42-13.1 33.9-11.85 33.9-10.35L33.9-10.35 33.9 0 29.65 0ZM69.59-5.55L72.8-2.45Q71.3-1.1 69.15-0.3 67 0.5 64.75 0.5L64.75 0.5Q62.45 0.5 60.42-0.38 58.4-1.25 56.9-2.73 55.4-4.2 54.52-6.2 53.65-8.2 53.65-10.45L53.65-10.45Q53.65-12.7 54.52-14.7 55.4-16.7 56.9-18.2 58.4-19.7 60.37-20.58 62.35-21.45 64.59-21.45L64.59-21.45Q68.15-21.45 70.77-19.33 73.4-17.2 74.55-13.75L74.55-13.75Q73-13.2 71-12.4 69-11.6 66.84-10.73 64.7-9.85 62.55-9 60.4-8.15 58.55-7.45L58.55-7.45Q59.4-5.75 61.02-4.73 62.65-3.7 64.65-3.7L64.65-3.7Q66-3.7 67.37-4.2 68.75-4.7 69.59-5.55L69.59-5.55ZM69.2-14.75L69.2-14.75Q68.59-16 67.3-16.63 66-17.25 64.65-17.25L64.65-17.25Q63.2-17.25 61.97-16.7 60.75-16.15 59.85-15.23 58.95-14.3 58.42-13.1 57.9-11.9 57.9-10.65L57.9-10.65Q57.9-10.4 57.92-10.3 57.95-10.2 57.95-10.15L57.95-10.15Q59.25-10.65 60.77-11.28 62.3-11.9 63.8-12.53 65.3-13.15 66.7-13.73 68.09-14.3 69.2-14.75ZM95.04-17.55L95.04-17.55 93.49-20.9 97.19-20.9Q98.64-17.75 99.64-15.48 100.64-13.2 101.34-11.53 102.04-9.85 102.49-8.7 102.94-7.55 103.24-6.75L103.24-6.75Q103.54-8.25 103.97-9.47 104.39-10.7 105.04-12.23 105.69-13.75 106.62-15.78 107.54-17.8 108.84-20.9L108.84-20.9 113.14-20.9 103.24 1.25Q102.34-0.6 101.57-2.43 100.79-4.25 100.07-6.05 99.34-7.85 98.57-9.65 97.79-11.45 96.89-13.35L96.89-13.35 90.54 1.25 81.09-20.9 85.39-20.9Q86.69-17.8 87.54-15.75 88.39-13.7 88.97-12.2 89.54-10.7 89.89-9.47 90.24-8.25 90.54-6.75L90.54-6.75Q90.74-7.35 91.02-8.1 91.29-8.85 91.77-10.03 92.24-11.2 93.04-13 93.84-14.8 95.04-17.55ZM114.24-10.5L114.24-10.5Q114.24-12.75 115.11-14.75 115.99-16.75 117.49-18.23 118.99-19.7 121.01-20.58 123.04-21.45 125.39-21.45L125.39-21.45Q127.74-21.45 129.76-20.58 131.79-19.7 133.26-18.23 134.74-16.75 135.56-14.75 136.39-12.75 136.39-10.5L136.39-10.5Q136.39-8.25 135.56-6.25 134.74-4.25 133.26-2.75 131.79-1.25 129.76-0.38 127.74 0.5 125.34 0.5L125.34 0.5Q123.04 0.5 121.01-0.3 118.99-1.1 117.49-2.55 115.99-4 115.11-6.03 114.24-8.05 114.24-10.5ZM118.49-10.45L118.49-10.45Q118.49-9.05 119.01-7.83 119.54-6.6 120.46-5.68 121.39-4.75 122.61-4.23 123.84-3.7 125.24-3.7L125.24-3.7Q126.64-3.7 127.89-4.23 129.14-4.75 130.06-5.68 130.99-6.6 131.54-7.83 132.09-9.05 132.09-10.45L132.09-10.45Q132.09-11.85 131.54-13.1 130.99-14.35 130.06-15.28 129.14-16.2 127.89-16.73 126.64-17.25 125.24-17.25L125.24-17.25Q123.84-17.25 122.61-16.73 121.39-16.2 120.46-15.28 119.54-14.35 119.01-13.1 118.49-11.85 118.49-10.45ZM153.38-21.45L152.44-15.95Q151.03-15.95 149.74-15.58 148.44-15.2 147.41-14.45 146.38-13.7 145.78-12.58 145.19-11.45 145.19-10L145.19-10 145.19 0 140.94 0 140.94-20.9 144.69-20.9Q144.78-19.35 144.86-18.07 144.94-16.8 145.03-15.55L145.03-15.55Q145.69-16.9 146.74-18 147.78-19.1 148.99-19.85 150.19-20.6 151.34-21.03 152.49-21.45 153.38-21.45L153.38-21.45ZM160.78-38.85L160.78 0 156.53 0 156.53-38.85 160.78-38.85ZM165.43-10.45L165.43-10.45Q165.43-12.9 166.26-14.93 167.08-16.95 168.53-18.4 169.98-19.85 171.96-20.65 173.93-21.45 176.23-21.45L176.23-21.45Q177.78-21.45 179.01-21.08 180.23-20.7 181.11-20.18 181.98-19.65 182.58-19 183.18-18.35 183.48-17.85L183.48-17.85 183.48-38.85 187.78-38.85 187.78 0 183.48 0 183.48-1.55Q183.48-1.85 183.53-2.23 183.58-2.6 183.58-2.85L183.58-2.85Q183.08-2.25 182.41-1.68 181.73-1.1 180.83-0.6 179.93-0.1 178.76 0.2 177.58 0.5 176.08 0.5L176.08 0.5Q173.58 0.5 171.61-0.38 169.63-1.25 168.26-2.73 166.88-4.2 166.16-6.2 165.43-8.2 165.43-10.45ZM169.73-10.5L169.73-10.5Q169.73-9.05 170.26-7.8 170.78-6.55 171.68-5.65 172.58-4.75 173.83-4.23 175.08-3.7 176.58-3.7L176.58-3.7Q178.08-3.7 179.36-4.23 180.63-4.75 181.56-5.68 182.48-6.6 182.98-7.83 183.48-9.05 183.48-10.5L183.48-10.5Q183.48-11.95 182.98-13.18 182.48-14.4 181.56-15.3 180.63-16.2 179.36-16.73 178.08-17.25 176.58-17.25L176.58-17.25Q175.08-17.25 173.83-16.73 172.58-16.2 171.68-15.3 170.78-14.4 170.26-13.18 169.73-11.95 169.73-10.5ZM199.73-28.9L199.73-28.9Q199.73-30.1 200.6-30.9 201.48-31.7 202.48-31.7L202.48-31.7Q203.48-31.7 204.33-30.9 205.18-30.1 205.18-28.9L205.18-28.9Q205.18-27.7 204.33-26.93 203.48-26.15 202.48-26.15L202.48-26.15Q201.48-26.15 200.6-26.93 199.73-27.7 199.73-28.9ZM204.53-20.9L204.53 0 200.28 0 200.28-20.9 204.53-20.9ZM222.17-19.05L222.17-19.05 219.92-16.05Q219.87-16.1 219.57-16.3 219.27-16.5 218.8-16.7 218.32-16.9 217.7-17.07 217.07-17.25 216.42-17.25L216.42-17.25Q215.57-17.25 214.75-16.85 213.92-16.45 213.92-15.35L213.92-15.35Q213.92-14.4 214.6-13.8 215.27-13.2 216.27-12.73 217.27-12.25 218.45-11.75 219.62-11.25 220.62-10.53 221.62-9.8 222.3-8.72 222.97-7.65 222.97-6L222.97-6Q222.97-3.2 221.05-1.38 219.12 0.45 215.77 0.45L215.77 0.45Q213.82 0.45 211.95-0.23 210.07-0.9 208.92-2.2L208.92-2.2Q209.27-2.55 209.7-3.1 210.12-3.65 210.55-4.15 210.97-4.65 211.25-4.98 211.52-5.3 211.57-5.3L211.57-5.3Q211.57-5.25 211.95-5 212.32-4.75 212.92-4.48 213.52-4.2 214.27-3.98 215.02-3.75 215.77-3.75L215.77-3.75Q216.97-3.75 217.82-4.35 218.67-4.95 218.67-5.95L218.67-5.95Q218.67-6.85 218-7.38 217.32-7.9 216.32-8.35 215.32-8.8 214.12-9.28 212.92-9.75 211.92-10.5 210.92-11.25 210.25-12.38 209.57-13.5 209.57-15.3L209.57-15.3Q209.57-17 210.2-18.15 210.82-19.3 211.8-20.03 212.77-20.75 213.97-21.08 215.17-21.4 216.27-21.4L216.27-21.4Q217.72-21.4 219.37-20.8 221.02-20.2 222.17-19.05ZM253.52-20.9L238.62 10.05 234.32 10.05Q235.02 8.6 235.64 7.28 236.27 5.95 236.89 4.58 237.52 3.2 238.17 1.73 238.82 0.25 239.62-1.45L239.62-1.45Q238.47-3.7 237.27-6.18 236.07-8.65 234.87-11.15 233.67-13.65 232.49-16.15 231.32-18.65 230.17-20.9L230.17-20.9 234.82-20.9Q236.62-17.35 237.79-14.9 238.97-12.45 239.74-10.68 240.52-8.9 240.99-7.65 241.47-6.4 241.82-5.35L241.82-5.35Q242.22-6.4 242.69-7.65 243.17-8.9 243.94-10.68 244.72-12.45 245.89-14.9 247.07-17.35 248.87-20.9L248.87-20.9 253.52-20.9ZM254.62-10.5L254.62-10.5Q254.62-12.75 255.49-14.75 256.37-16.75 257.87-18.23 259.37-19.7 261.39-20.58 263.42-21.45 265.77-21.45L265.77-21.45Q268.12-21.45 270.14-20.58 272.17-19.7 273.64-18.23 275.12-16.75 275.94-14.75 276.77-12.75 276.77-10.5L276.77-10.5Q276.77-8.25 275.94-6.25 275.12-4.25 273.64-2.75 272.17-1.25 270.14-0.38 268.12 0.5 265.72 0.5L265.72 0.5Q263.42 0.5 261.39-0.3 259.37-1.1 257.87-2.55 256.37-4 255.49-6.03 254.62-8.05 254.62-10.5ZM258.87-10.45L258.87-10.45Q258.87-9.05 259.39-7.83 259.92-6.6 260.84-5.68 261.77-4.75 262.99-4.23 264.22-3.7 265.62-3.7L265.62-3.7Q267.02-3.7 268.27-4.23 269.52-4.75 270.44-5.68 271.37-6.6 271.92-7.83 272.47-9.05 272.47-10.45L272.47-10.45Q272.47-11.85 271.92-13.1 271.37-14.35 270.44-15.28 269.52-16.2 268.27-16.73 267.02-17.25 265.62-17.25L265.62-17.25Q264.22-17.25 262.99-16.73 261.77-16.2 260.84-15.28 259.92-14.35 259.39-13.1 258.87-11.85 258.87-10.45ZM300.76-20.9L300.76 0.45 297.16 0.45 296.66-5.35Q295.51-2.8 293.44-1.15 291.36 0.5 288.16 0.5L288.16 0.5Q284.96 0.5 283.09-1.23 281.21-2.95 281.11-5.75L281.11-5.75 281.11-20.9 285.36-20.9 285.36-7.65Q285.46-6.1 286.49-5 287.51-3.9 289.66-3.75L289.66-3.75Q291.16-3.75 292.41-4.28 293.66-4.8 294.56-5.7 295.46-6.6 295.96-7.85 296.46-9.1 296.46-10.6L296.46-10.6 296.46-20.9 300.76-20.9ZM319.21-21.45L318.26-15.95Q316.86-15.95 315.56-15.58 314.26-15.2 313.24-14.45 312.21-13.7 311.61-12.58 311.01-11.45 311.01-10L311.01-10 311.01 0 306.76 0 306.76-20.9 310.51-20.9Q310.61-19.35 310.69-18.07 310.76-16.8 310.86-15.55L310.86-15.55Q311.51-16.9 312.56-18 313.61-19.1 314.81-19.85 316.01-20.6 317.16-21.03 318.31-21.45 319.21-21.45L319.21-21.45ZM355.56 0L350.16 0Q349.91-0.55 349.46-1.6 349.01-2.65 348.43-4.03 347.86-5.4 347.18-7.03 346.51-8.65 345.81-10.4L345.81-10.4 333.01-10.4 328.71 0 323.31 0 339.46-37.95Q339.76-37.25 340.53-35.4 341.31-33.55 342.38-30.98 343.46-28.4 344.78-25.28 346.11-22.15 347.48-18.95 348.86-15.75 350.18-12.65 351.51-9.55 352.61-6.95 353.71-4.35 354.48-2.53 355.26-0.7 355.56 0L355.56 0ZM338.91-24.7L334.91-15 343.96-15Q343.26-16.65 342.63-18.18 342.01-19.7 341.48-20.98 340.96-22.25 340.56-23.2 340.16-24.15 339.96-24.7L339.96-24.7Q339.91-24.8 339.73-25.4 339.56-26 339.46-26.5L339.46-26.5Q339.36-26 339.16-25.4 338.96-24.8 338.91-24.7L338.91-24.7ZM377.7-20.9L377.7 0.45 374.1 0.45 373.6-5.35Q372.45-2.8 370.38-1.15 368.3 0.5 365.1 0.5L365.1 0.5Q361.9 0.5 360.03-1.23 358.15-2.95 358.05-5.75L358.05-5.75 358.05-20.9 362.3-20.9 362.3-7.65Q362.4-6.1 363.43-5 364.45-3.9 366.6-3.75L366.6-3.75Q368.1-3.75 369.35-4.28 370.6-4.8 371.5-5.7 372.4-6.6 372.9-7.85 373.4-9.1 373.4-10.6L373.4-10.6 373.4-20.9 377.7-20.9ZM382.3-10.45L382.3-10.45Q382.3-12.9 383.13-14.93 383.95-16.95 385.4-18.4 386.85-19.85 388.83-20.65 390.8-21.45 393.1-21.45L393.1-21.45Q394.65-21.45 395.88-21.08 397.1-20.7 397.98-20.18 398.85-19.65 399.45-19 400.05-18.35 400.35-17.85L400.35-17.85 400.35-38.85 404.65-38.85 404.65 0 400.35 0 400.35-1.55Q400.35-1.85 400.4-2.23 400.45-2.6 400.45-2.85L400.45-2.85Q399.95-2.25 399.28-1.68 398.6-1.1 397.7-0.6 396.8-0.1 395.63 0.2 394.45 0.5 392.95 0.5L392.95 0.5Q390.45 0.5 388.48-0.38 386.5-1.25 385.13-2.73 383.75-4.2 383.03-6.2 382.3-8.2 382.3-10.45ZM386.6-10.5L386.6-10.5Q386.6-9.05 387.13-7.8 387.65-6.55 388.55-5.65 389.45-4.75 390.7-4.23 391.95-3.7 393.45-3.7L393.45-3.7Q394.95-3.7 396.23-4.23 397.5-4.75 398.43-5.68 399.35-6.6 399.85-7.83 400.35-9.05 400.35-10.5L400.35-10.5Q400.35-11.95 399.85-13.18 399.35-14.4 398.43-15.3 397.5-16.2 396.23-16.73 394.95-17.25 393.45-17.25L393.45-17.25Q391.95-17.25 390.7-16.73 389.45-16.2 388.55-15.3 387.65-14.4 387.13-13.18 386.6-11.95 386.6-10.5ZM410.1-28.9L410.1-28.9Q410.1-30.1 410.97-30.9 411.85-31.7 412.85-31.7L412.85-31.7Q413.85-31.7 414.7-30.9 415.55-30.1 415.55-28.9L415.55-28.9Q415.55-27.7 414.7-26.93 413.85-26.15 412.85-26.15L412.85-26.15Q411.85-26.15 410.97-26.93 410.1-27.7 410.1-28.9ZM414.9-20.9L414.9 0 410.65 0 410.65-20.9 414.9-20.9ZM435.4-5.55L438.6-2.45Q437.1-1.1 434.95-0.3 432.8 0.5 430.55 0.5L430.55 0.5Q428.25 0.5 426.22-0.38 424.2-1.25 422.7-2.73 421.2-4.2 420.32-6.2 419.45-8.2 419.45-10.45L419.45-10.45Q419.45-12.7 420.32-14.7 421.2-16.7 422.7-18.2 424.2-19.7 426.17-20.58 428.15-21.45 430.4-21.45L430.4-21.45Q433.95-21.45 436.57-19.33 439.2-17.2 440.35-13.75L440.35-13.75Q438.8-13.2 436.8-12.4 434.8-11.6 432.65-10.73 430.5-9.85 428.35-9 426.2-8.15 424.35-7.45L424.35-7.45Q425.2-5.75 426.82-4.73 428.45-3.7 430.45-3.7L430.45-3.7Q431.8-3.7 433.17-4.2 434.55-4.7 435.4-5.55L435.4-5.55ZM435-14.75L435-14.75Q434.4-16 433.1-16.63 431.8-17.25 430.45-17.25L430.45-17.25Q429-17.25 427.77-16.7 426.55-16.15 425.65-15.23 424.75-14.3 424.22-13.1 423.7-11.9 423.7-10.65L423.7-10.65Q423.7-10.4 423.72-10.3 423.75-10.2 423.75-10.15L423.75-10.15Q425.05-10.65 426.57-11.28 428.1-11.9 429.6-12.53 431.1-13.15 432.5-13.73 433.9-14.3 435-14.75ZM444.04 0L444.04-20.9 447.79-20.9Q447.89-19.35 447.97-18.07 448.04-16.8 448.14-15.55L448.14-15.55Q449.29-18.25 451.42-19.85 453.54-21.45 456.64-21.45L456.64-21.45Q459.79-21.45 461.69-19.7 463.59-17.95 463.69-15.2L463.69-15.2 463.69 0 459.39 0 459.39-13.25Q459.29-14.85 458.29-15.98 457.29-17.1 455.14-17.2L455.14-17.2Q453.64-17.2 452.39-16.68 451.14-16.15 450.24-15.25 449.34-14.35 448.82-13.1 448.29-11.85 448.29-10.35L448.29-10.35 448.29 0 444.04 0ZM483.49-5.15L483.49-5.15Q484.19-4.3 484.81-3.53 485.44-2.75 486.09-1.9L486.09-1.9Q484.69-0.8 482.94-0.15 481.19 0.5 479.14 0.5L479.14 0.5Q476.84 0.5 474.81-0.38 472.79-1.25 471.29-2.75 469.79-4.25 468.92-6.25 468.04-8.25 468.04-10.5L468.04-10.5Q468.04-12.75 468.92-14.75 469.79-16.75 471.29-18.23 472.79-19.7 474.81-20.58 476.84-21.45 479.14-21.45L479.14-21.45Q481.24-21.45 483.01-20.8 484.79-20.15 486.24-19.05L486.24-19.05 483.49-15.8Q482.64-16.5 481.54-16.88 480.44-17.25 479.14-17.25L479.14-17.25Q477.64-17.25 476.39-16.73 475.14-16.2 474.22-15.3 473.29-14.4 472.79-13.18 472.29-11.95 472.29-10.5L472.29-10.5Q472.29-9.05 472.79-7.83 473.29-6.6 474.22-5.68 475.14-4.75 476.39-4.23 477.64-3.7 479.14-3.7L479.14-3.7Q480.44-3.7 481.54-4.08 482.64-4.45 483.49-5.15ZM504.04-5.55L507.24-2.45Q505.74-1.1 503.59-0.3 501.44 0.5 499.19 0.5L499.19 0.5Q496.89 0.5 494.86-0.38 492.84-1.25 491.34-2.73 489.84-4.2 488.96-6.2 488.09-8.2 488.09-10.45L488.09-10.45Q488.09-12.7 488.96-14.7 489.84-16.7 491.34-18.2 492.84-19.7 494.81-20.58 496.79-21.45 499.04-21.45L499.04-21.45Q502.59-21.45 505.21-19.33 507.84-17.2 508.99-13.75L508.99-13.75Q507.44-13.2 505.44-12.4 503.44-11.6 501.29-10.73 499.14-9.85 496.99-9 494.84-8.15 492.99-7.45L492.99-7.45Q493.84-5.75 495.46-4.73 497.09-3.7 499.09-3.7L499.09-3.7Q500.44-3.7 501.81-4.2 503.19-4.7 504.04-5.55L504.04-5.55ZM503.64-14.75L503.64-14.75Q503.04-16 501.74-16.63 500.44-17.25 499.09-17.25L499.09-17.25Q497.64-17.25 496.41-16.7 495.19-16.15 494.29-15.23 493.39-14.3 492.86-13.1 492.34-11.9 492.34-10.65L492.34-10.65Q492.34-10.4 492.36-10.3 492.39-10.2 492.39-10.15L492.39-10.15Q493.69-10.65 495.21-11.28 496.74-11.9 498.24-12.53 499.74-13.15 501.14-13.73 502.54-14.3 503.64-14.75Z" opacity="1" transform="matrix(1,0,0,1,0,0)" fill="#363c3e" class="slogan-text-1" data-fill-palette-color="secondary" id="text-1"></path></svg></g></svg></g></svg></g></svg></g><g transform="matrix(1,0,0,1,96.83982733420433,0)"><svg viewBox="0 0 201.84034533159132 185.86195793858678" height="185.86195793858678" width="201.84034533159132"><g><svg xmlns="http://www.w3.org/2000/svg" xmlns:xlink="http://www.w3.org/1999/xlink" version="1.1" x="8" y="0" viewBox="7.0631382878062885 6.651814309743116 85.23827276587562 85.24818569025689" style="enable-background:new 0 0 100 100;" xml:space="preserve" height="185.86195793858678" width="185.84034533159132" class="icon-icon-0" data-fill-palette-color="accent" id="icon-0"><path d="M28.9 91.9c-1.5 0-3-0.3-4.4-0.8-4.5-1.6-7.8-5.3-8.7-10L7.3 36.7c-0.9-4.7 0.8-9.6 4.5-12.7L28.6 9.8c3.7-3.1 8.8-4 13.2-2.3l41.9 15.7c4.5 1.7 7.6 5.5 8.4 10.2 0.8 4.7-0.8 9.3-4.5 12.4L37.5 88.7C35.1 90.8 32 91.9 28.9 91.9zM37.2 12.7c-1.7 0-3.4 0.6-4.7 1.7L15.6 28.6c-2 1.7-3 4.4-2.5 7L21.7 80c0.5 2.6 2.3 4.6 4.8 5.5 2.5 0.9 5.2 0.4 7.2-1.3l50.2-42.9c2-1.7 2.9-4.2 2.5-6.8-0.5-2.6-2.2-4.7-4.6-5.6L39.7 13.2C38.9 12.8 38 12.7 37.2 12.7z" fill="#283132" data-fill-palette-color="accent"></path></svg></g></svg></g><g><rect width="42.21758719069712" height="8.092057922400137" y="176.76990001618663" x="298.6801726657957" fill="#283132" data-fill-palette-color="accent"></rect><rect width="42.21758719069712" height="8.092057922400137" y="176.76990001618663" x="54.62224014350721" fill="#283132" data-fill-palette-color="accent"></rect><rect width="42.21758719069712" height="8.092057922400137" y="160.58578417138636" x="298.6801726657957" fill="#283132" data-fill-palette-color="accent"></rect><rect width="42.21758719069712" height="8.092057922400137" y="160.58578417138636" x="54.62224014350721" fill="#283132" data-fill-palette-color="accent"></rect></g></svg></g><defs></defs></svg><rect width="286.27551971298556" height="247.2" fill="none" stroke="none" visibility="hidden"></rect></g></svg></g></svg>